<svg width="602" height="558" viewBox="0 0 602 558" fill="none" xmlns="http://www.w3.org/2000/svg">
<g clip-path="url(#clip0)">
<path d="M601.557 551.99H0.557373V553.504H601.557V551.99Z" fill="#3F3D56"/>
<path d="M571.194 190.751V336.957H211.967V190.751C211.902 149.605 224.512 109.558 247.884 76.6794C263.563 54.5485 283.617 36.3064 306.645 23.2265C329.673 10.1466 355.121 2.5441 381.212 0.949766C384.637 0.73785 388.094 0.634413 391.581 0.639458C393.561 0.639458 395.542 0.669737 397.501 0.745421C443.075 2.27323 486.381 22.1502 518.581 56.3203C519.553 57.3496 520.504 58.3865 521.462 59.4309C526.384 64.8874 530.997 70.6469 535.277 76.6794C558.647 109.56 571.256 149.605 571.194 190.751V190.751Z" fill="#E6E6E6"/>
<path d="M397.504 0.746815V336.956H381.209V0.9506C384.638 0.738961 388.095 0.634442 391.578 0.637041C393.563 0.637041 395.541 0.668429 397.504 0.746815Z" fill="white"/>
<path d="M535.276 76.6811H247.881C252.159 70.6479 256.772 64.8888 261.694 59.434H521.462C526.385 64.8888 530.998 70.6479 535.276 76.6811V76.6811Z" fill="white"/>
<path d="M543.85 126.071H416.536V336.957H543.85V126.071Z" fill="white"/>
<path d="M457.993 164.611H438.735V184.995H457.993V164.611Z" fill="#E6E6E6"/>
<path d="M489.02 164.611H469.762V184.995H489.02V164.611Z" fill="#E6E6E6"/>
<path d="M520.046 164.611H500.788V184.995H520.046V164.611Z" fill="#E6E6E6"/>
<path d="M458.528 211.04H439.27V231.424H458.528V211.04Z" fill="#E6E6E6"/>
<path d="M489.555 211.04H470.297V231.424H489.555V211.04Z" fill="#E6E6E6"/>
<path d="M520.581 211.04H501.323V231.424H520.581V211.04Z" fill="#E6E6E6"/>
<path d="M459.063 257.469H439.805V277.852H459.063V257.469Z" fill="#E6E6E6"/>
<path d="M490.089 257.469H470.832V277.852H490.089V257.469Z" fill="#E6E6E6"/>
<path d="M521.116 257.469H501.858V277.852H521.116V257.469Z" fill="#E6E6E6"/>
<path d="M459.598 303.898H440.34V324.281H459.598V303.898Z" fill="#E6E6E6"/>
<path d="M490.625 303.898H471.367V324.281H490.625V303.898Z" fill="#E6E6E6"/>
<path d="M521.651 303.898H502.393V324.281H521.651V303.898Z" fill="#E6E6E6"/>
<path d="M459.598 303.898H440.34V324.281H459.598V303.898Z" fill="#E6E6E6"/>
<path d="M490.625 303.898H471.367V324.281H490.625V303.898Z" fill="#E6E6E6"/>
<path d="M521.651 303.898H502.393V324.281H521.651V303.898Z" fill="#E6E6E6"/>
<path d="M254.666 290.569C269.325 290.569 281.209 277.991 281.209 262.475C281.209 246.96 269.325 234.382 254.666 234.382C240.008 234.382 228.124 246.96 228.124 262.475C228.124 277.991 240.008 290.569 254.666 290.569Z" fill="#3DAD9D"/>
<path d="M256.036 336.957H253.447L254.255 290.563L254.741 262.476H254.813L255.278 290.563L255.535 306.54L255.564 308.091L256.036 336.957Z" fill="white"/>
<path d="M259.572 305.86L258.961 304.631L254.573 307.076L255.185 308.305L259.572 305.86Z" fill="white"/>
<path d="M332.7 263.725C354.991 263.725 373.062 244.598 373.062 221.004C373.062 197.41 354.991 178.283 332.7 178.283C310.408 178.283 292.338 197.41 292.338 221.004C292.338 244.598 310.408 263.725 332.7 263.725Z" fill="#3DAD9D"/>
<path d="M334.834 336.957H330.794L331.631 288.814L332.067 263.718L332.811 221.001H332.925L333.626 263.71L334.026 288.012L334.069 290.374L334.834 336.957Z" fill="white"/>
<path d="M340.16 286.978L339.23 285.108L332.558 288.826L333.488 290.696L340.16 286.978Z" fill="white"/>
<path d="M249.451 180.21L256.27 174.438C250.973 173.82 248.796 176.877 247.906 179.298C243.768 177.479 239.263 179.862 239.263 179.862L252.905 185.104C252.217 183.159 251.019 181.461 249.451 180.21V180.21Z" fill="#3DAD9D"/>
<path d="M321.296 133.173L328.115 127.401C322.818 126.782 320.641 129.84 319.751 132.26C315.613 130.441 311.108 132.825 311.108 132.825L324.75 138.067C324.062 136.121 322.864 134.423 321.296 133.173V133.173Z" fill="#3DAD9D"/>
<path d="M293.892 177.859L300.71 172.086C295.413 171.468 293.237 174.526 292.346 176.946C288.208 175.127 283.703 177.51 283.703 177.51L297.345 182.753C296.657 180.807 295.459 179.109 293.892 177.859V177.859Z" fill="#3DAD9D"/>
<path d="M104.808 218.979C104.808 218.979 121.227 222.7 123.679 220.971C124.413 220.483 125.263 220.224 126.13 220.224C126.997 220.224 127.847 220.483 128.581 220.971C142.472 215.349 128.454 198.205 128.046 191.286C127.637 184.368 119.466 174.854 119.466 174.854L104.808 218.979Z" fill="#2F2E41"/>
<path d="M89.9214 202.81C89.9214 212.292 72.0044 233.153 72.0044 233.153L106.047 289.097C106.047 289.097 119.484 232.205 111.422 229.36C103.359 226.515 112.318 213.24 112.318 213.24L89.9214 202.81Z" fill="#A0616A"/>
<path d="M50.5041 296.683L74.692 312.802L68.4211 323.232C68.4211 323.232 63.046 318.491 63.046 317.543C63.046 316.595 27.2121 298.579 23.6287 295.734C20.0453 292.89 31.6913 280.563 31.6913 280.563L50.5041 296.683Z" fill="#A0616A"/>
<path d="M146.937 295.419C146.937 295.419 123.068 311.854 122.172 313.75C121.276 315.647 128.443 337.455 133.024 336.622C137.606 335.788 132.922 320.388 132.922 320.388C132.922 320.388 154.422 302.372 161.589 295.734C168.756 289.097 159.797 273.926 159.797 273.926L146.937 295.419Z" fill="#A0616A"/>
<path d="M156.39 511.348L161.796 532.11L174.651 531.543L168.035 505.659L156.39 511.348Z" fill="#A0616A"/>
<path d="M76.4836 507.185L80.9627 528.045H89.9216V507.185H76.4836Z" fill="#A0616A"/>
<path d="M106.047 218.93C116.931 218.93 125.755 209.59 125.755 198.069C125.755 186.548 116.931 177.209 106.047 177.209C95.1618 177.209 86.3379 186.548 86.3379 198.069C86.3379 209.59 95.1618 218.93 106.047 218.93Z" fill="#A0616A"/>
<path d="M77.3204 226.516C77.3204 226.516 74.692 230.308 64.8377 233.153C54.9834 235.997 27.2121 263.495 26.3163 283.408C25.4204 303.32 49.6083 297.631 49.6083 297.631C49.6083 297.631 72.0045 301.424 72.0045 302.372C72.0045 303.32 71.1087 309.009 71.1087 309.009C56.7751 327.973 54.9834 360.212 54.9834 360.212C54.9834 360.212 46.025 501.495 47.8167 512.873C49.6084 524.252 92.609 517.614 92.609 517.614L94.4007 390.555C94.4007 390.555 112.318 504.34 115.901 513.822C119.484 523.304 170.548 510.977 170.548 510.977C170.548 510.977 128.443 322.284 128.443 309.957C128.443 297.631 141.881 294.786 141.881 294.786C141.881 294.786 156.214 297.631 157.11 291.942C158.006 286.252 163.381 277.718 163.381 277.718C163.381 277.718 152.631 253.065 142.776 239.79C132.922 226.515 111.422 229.36 111.422 229.36L99.7757 272.029L77.3204 226.516Z" fill="#2F2E41"/>
<path d="M159.788 525.747C159.788 525.747 157.94 546.845 157.996 549.843C158.046 552.519 175.923 553.255 177.714 550.41C179.506 547.566 185.777 550.41 185.777 552.307C185.777 554.203 203.694 552.864 203.694 552.864C226.986 541.485 200.36 538.346 200.36 538.346C200.36 538.346 184.495 530.419 177.329 527.574C170.162 524.73 173.044 526.441 173.044 526.441C171.252 533.078 159.788 525.747 159.788 525.747Z" fill="#2F2E41"/>
<path d="M73.7961 546.061C72.9002 547.009 75.5877 559.335 88.1296 557.439C100.671 555.543 97.0881 541.32 97.0881 539.423C97.0881 537.527 95.2964 523.304 94.4005 519.511C93.5047 515.718 78.2753 522.355 78.2753 522.355C78.2753 522.355 74.6919 545.112 73.7961 546.061Z" fill="#2F2E41"/>
<path d="M121.896 178.746C121.026 181.722 120.344 184.756 119.853 187.827C119.445 191.286 111.682 192.151 111.682 192.151C112.5 192.151 112.5 186.962 112.5 186.962C112.5 189.989 108.006 193.016 108.006 193.016C103.905 195.593 100.187 198.799 96.9747 202.529C91.2551 209.016 98.6089 209.881 98.6089 209.881C98.0577 220.305 77.8952 224.53 77.8952 224.53C54.6079 215.882 72.3483 186.29 72.3483 186.29C89.9159 151.696 104.124 166.854 104.124 166.854C119.445 164.476 121.896 178.746 121.896 178.746Z" fill="#2F2E41"/>
</g>
<defs>
<clipPath id="clip0">
<rect width="601" height="557" fill="white" transform="translate(0.557373 0.637054)"/>
</clipPath>
</defs>
</svg>
