<svg width="100" height="86" viewBox="0 0 100 86" fill="none" xmlns="http://www.w3.org/2000/svg">
<g clip-path="url(#clip0)">
<path d="M68.4516 16.1084C68.4516 7.25906 60.1907 0.0854492 50 0.0854492C39.8094 0.0854492 31.5485 7.25906 31.5485 16.1084C31.5485 24.9578 39.8094 32.1314 50 32.1314C60.1907 32.1314 68.4516 24.9578 68.4516 16.1084ZM45.6928 40.3264C34.2893 34.2644 15.8185 32.5987 6.52357 32.1397C3.40026 31.9862 0.795898 34.0524 0.795898 36.6612V73.8478C0.795898 76.2396 3.02354 78.2341 5.88737 78.3626C14.279 78.7448 31.2563 80.1452 42.9904 85.2775C44.7913 86.0653 46.9267 84.9921 46.9267 83.2963V42.2392C46.9248 41.4597 46.4808 40.7454 45.6928 40.3264ZM93.4765 32.1397C84.1835 32.597 65.7108 34.2644 54.3093 40.3264C53.5212 40.7454 53.0772 41.4881 53.0772 42.2675V83.2913C53.0772 84.9921 55.2184 86.067 57.0251 85.2775C68.7572 80.1502 85.7249 78.7498 94.1146 78.3676C96.9785 78.2374 99.2061 76.2429 99.2061 73.8511V36.6612C99.2042 34.0524 96.5998 31.9862 93.4765 32.1397V32.1397Z" fill="#76A59D"/>
</g>
<defs>
<clipPath id="clip0">
<rect width="98.4083" height="85.4558" fill="white" transform="translate(0.795898 0.0856934)"/>
</clipPath>
</defs>
</svg>
