<svg width="112" height="101" viewBox="0 0 112 101" fill="none" xmlns="http://www.w3.org/2000/svg">
<g clip-path="url(#clip0)">
<path d="M80.4888 37.8202C80.4888 20.5467 62.5081 6.55591 40.3173 6.55591C18.1264 6.55591 0.145752 20.5467 0.145752 37.8202C0.145752 44.5225 2.86892 50.6972 7.48478 55.7972C4.8968 61.6983 0.628583 66.388 0.570643 66.4466C0.145752 66.896 0.0298726 67.5604 0.280945 68.1466C0.532016 68.7328 1.07279 69.0845 1.69081 69.0845C8.75945 69.0845 14.6114 66.6811 18.8216 64.1995C25.0405 67.2673 32.3988 69.0845 40.3173 69.0845C62.5081 69.0845 80.4888 55.0937 80.4888 37.8202ZM104.051 80.8086C108.667 75.7282 111.39 69.5339 111.39 62.8316C111.39 49.7593 101.057 38.5627 86.4179 33.8926C86.5917 35.1823 86.669 36.4915 86.669 37.8202C86.669 58.5133 65.8686 75.3374 40.3173 75.3374C38.2314 75.3374 36.2035 75.181 34.195 74.9661C40.2786 86.2017 54.5704 94.0959 71.2184 94.0959C79.1368 94.0959 86.4952 92.2983 92.714 89.2109C96.9243 91.6925 102.776 94.0959 109.845 94.0959C110.463 94.0959 111.023 93.7247 111.255 93.158C111.506 92.5914 111.39 91.927 110.965 91.458C110.907 91.3994 106.639 86.7293 104.051 80.8086Z" fill="#76A59D"/>
</g>
<defs>
<clipPath id="clip0">
<rect width="111.244" height="100.046" fill="white" transform="translate(0.145752 0.302979)"/>
</clipPath>
</defs>
</svg>
