<svg width="108" height="99" viewBox="0 0 108 99" fill="none" xmlns="http://www.w3.org/2000/svg">
<g clip-path="url(#clip0)">
<path d="M67.4137 47.4864L57.0306 66.5047C55.7771 68.8198 52.1419 68.7432 50.9929 66.3899L39.1055 42.2248L32.838 55.9432H13.1789L51.3062 91.6264C52.7895 93.0231 55.1921 93.0231 56.6754 91.6264L94.8237 55.9432H72.0308L67.4137 47.4864ZM99.4825 14.9792L98.9811 14.5009C88.2219 4.43688 70.6102 4.43688 59.83 14.5009L54.0013 19.973L48.1725 14.52C37.4132 4.43688 19.7806 4.43688 9.02141 14.52L8.52001 14.9792C-1.65425 24.5075 -2.09298 39.68 6.99492 49.8206H28.388L35.8881 33.3279C37.0163 30.8597 40.8186 30.8023 42.0303 33.2513L54.1893 57.9904L64.4262 39.2591C65.6588 37.0014 69.1686 37.0014 70.4012 39.2591L76.1674 49.8206H101.008C110.095 39.68 109.657 24.5075 99.4825 14.9792V14.9792Z" fill="#76A59D"/>
</g>
<defs>
<clipPath id="clip0">
<rect width="106.966" height="97.9615" fill="white" transform="translate(0.521484 0.832764)"/>
</clipPath>
</defs>
</svg>
