<svg width="495" height="320" viewBox="0 0 495 320" fill="none" xmlns="http://www.w3.org/2000/svg">
<g filter="url(#filter0_d)">
<rect x="302.637" y="1.75659" width="186.425" height="298.181" rx="19" stroke="black" stroke-width="2"/>
</g>
<path d="M213.832 188.895C216.48 188.895 218.626 186.054 218.626 182.549C218.626 179.044 216.48 176.203 213.832 176.203C211.184 176.203 209.037 179.044 209.037 182.549C209.037 186.054 211.184 188.895 213.832 188.895Z" fill="#F1F1F1"/>
<path d="M97.775 83.2175C100.423 83.2175 102.569 80.3765 102.569 76.8719C102.569 73.3674 100.423 70.5264 97.775 70.5264C95.127 70.5264 92.9805 73.3674 92.9805 76.8719C92.9805 80.3765 95.127 83.2175 97.775 83.2175Z" fill="#F1F1F1"/>
<path d="M257.924 104.521L52.4456 22.8562L3.55918 238.324L209.037 319.989L257.924 104.521Z" fill="#F1F1F1"/>
<path d="M131.849 66.343L171.211 87.4004" stroke="#3F3D56" stroke-width="2" stroke-miterlimit="10"/>
<path d="M132.85 70.6724L133.439 70.3081L132.081 66.4675L135.074 64.9546L134.842 64.1509L131.196 65.9944L132.85 70.6724Z" fill="#3F3D56"/>
<path d="M168.218 89.5938L167.986 88.79L170.979 87.2776L169.621 83.4365L170.21 83.0723L171.864 87.7511L168.218 89.5938Z" fill="#3F3D56"/>
<path d="M151.53 81.6025C153.504 81.6025 155.104 79.4846 155.104 76.8719C155.104 74.2593 153.504 72.1414 151.53 72.1414C149.556 72.1414 147.956 74.2593 147.956 76.8719C147.956 79.4846 149.556 81.6025 151.53 81.6025Z" fill="#3F3D56"/>
<path d="M128.85 212.327L165.113 183.105" stroke="#3F3D56" stroke-width="2" stroke-miterlimit="10"/>
<path d="M132.071 213.849L132.202 213.006L129.063 212.156L129.933 208.074L129.307 207.841L128.248 212.813L132.071 213.849Z" fill="#3F3D56"/>
<path d="M164.656 187.592L164.03 187.358L164.9 183.277L161.761 182.426L161.892 181.583L165.715 182.621L164.656 187.592Z" fill="#3F3D56"/>
<path d="M146.981 202.447C148.955 202.447 150.555 200.329 150.555 197.716C150.555 195.103 148.955 192.985 146.981 192.985C145.007 192.985 143.407 195.103 143.407 197.716C143.407 200.329 145.007 202.447 146.981 202.447Z" fill="#3F3D56"/>
<path d="M112.3 5.32178H53.1633V102.513H112.3V5.32178Z" fill="#3F3D56"/>
<path d="M86.4287 52.2454H99.8494C100.765 45.2379 100.765 38.0743 99.8494 31.0669H86.4287C87.9407 37.9846 87.9407 45.3277 86.4287 52.2454V52.2454Z" fill="#3DAD9D"/>
<path d="M222.642 95.3433H163.505V213.849H222.642V95.3433Z" fill="#3F3D56"/>
<path d="M382.769 37.3325H323.632V155.839H382.769V37.3325Z" fill="#3F3D56"/>
<path d="M214.194 126.643H171.953V129.223H214.194V126.643Z" fill="#3DAD9D"/>
<path d="M374.321 58.3796H332.08V60.9597H374.321V58.3796Z" fill="#3DAD9D"/>
<path d="M474.895 41.9268H397.828V44.5071H474.895V41.9268Z" fill="#3DAD9D"/>
<path d="M474.895 87.8191H397.828V90.3992H474.895V87.8191Z" fill="#3DAD9D"/>
<path d="M214.194 135.674H171.953V138.254H214.194V135.674Z" fill="#3DAD9D"/>
<path d="M374.321 67.4106H332.08V69.9907H374.321V67.4106Z" fill="#3DAD9D"/>
<path d="M474.716 50.9575H397.828V53.5378H474.716V50.9575Z" fill="#3DAD9D"/>
<path d="M474.716 96.8499H397.828V99.4299H474.716V96.8499Z" fill="#3DAD9D"/>
<path d="M214.194 144.705H171.953V147.285H214.194V144.705Z" fill="#3DAD9D"/>
<path d="M374.321 76.4414H332.08V79.022H374.321V76.4414Z" fill="#3DAD9D"/>
<path d="M474.431 59.9888H397.828V62.5686H474.431V59.9888Z" fill="#3DAD9D"/>
<path d="M474.431 105.881H397.828V108.461H474.431V105.881Z" fill="#3DAD9D"/>
<path d="M214.194 153.736H171.953V156.316H214.194V153.736Z" fill="#3DAD9D"/>
<path d="M374.321 85.4727H332.08V88.053H374.321V85.4727Z" fill="#3DAD9D"/>
<path d="M474.431 69.0195H397.828V71.5999H474.431V69.0195Z" fill="#3DAD9D"/>
<path d="M474.431 114.912H397.828V117.492H474.431V114.912Z" fill="#3DAD9D"/>
<path d="M214.194 162.767H171.953V165.347H214.194V162.767Z" fill="#3DAD9D"/>
<path d="M374.321 94.5037H332.08V97.084H374.321V94.5037Z" fill="#3DAD9D"/>
<path d="M474.431 78.0508H397.828V80.6309H474.431V78.0508Z" fill="#3DAD9D"/>
<path d="M474.431 123.943H397.828V126.523H474.431V123.943Z" fill="#3DAD9D"/>
<path d="M204.121 172.228H182.026V182.549H204.121V172.228Z" fill="#3DAD9D"/>
<path d="M364.248 103.965H342.153V114.286H364.248V103.965Z" fill="#3DAD9D"/>
<path d="M117.499 197.554H58.3619V294.746H117.499V197.554Z" fill="#3F3D56"/>
<path d="M448.517 172.098H389.38V269.29H448.517V172.098Z" fill="#3F3D56"/>
<path d="M109.147 251.657H66.9065V254.238H109.147V251.657Z" fill="#3DAD9D"/>
<path d="M107.549 144.229H65.3085V146.809H107.549V144.229Z" fill="#3DAD9D"/>
<path opacity="0.3" d="M110.122 212.953H85.4275V215.103H110.122V212.953Z" fill="#3DAD9D"/>
<path opacity="0.3" d="M110.122 220.694H85.4275V222.844H110.122V220.694Z" fill="#3DAD9D"/>
<path opacity="0.3" d="M110.122 228.434H85.4272V230.585H110.122V228.434Z" fill="#3DAD9D"/>
<path opacity="0.3" d="M110.122 236.176H85.4272V238.325H110.122V236.176Z" fill="#3DAD9D"/>
<path d="M155.985 136.043L156.004 227.058" stroke="#3F3D56" stroke-width="2" stroke-miterlimit="10"/>
<path d="M142.069 123.171L142.751 124.121L145.876 119.088L149.003 124.119L149.685 123.168L145.875 117.042L142.069 123.171Z" fill="#3F3D56"/>
<path d="M178.834 216.809L179.516 215.858L182.642 220.889L185.768 215.856L186.45 216.806L182.643 222.934L178.834 216.809Z" fill="#3F3D56"/>
<path d="M117.422 234.72C120.25 234.72 122.543 231.289 122.543 227.058C122.543 222.826 120.25 219.395 117.422 219.395C114.593 219.395 112.3 222.826 112.3 227.058C112.3 231.289 114.593 234.72 117.422 234.72Z" fill="#3F3D56"/>
<path d="M82.7316 52.2456H63.4999C62.1875 40.8954 62.1875 29.2923 63.4999 17.9421H82.7316C80.565 29.1469 80.565 41.0408 82.7316 52.2456V52.2456Z" fill="#FFF9F9"/>
<path d="M62.5156 97.7827H81.7472C83.0597 86.4325 83.0597 74.8295 81.7472 63.4792H62.5156C64.6822 74.684 64.6822 86.5779 62.5156 97.7827V97.7827Z" fill="#3DAD9D"/>
<path opacity="0.3" d="M62.5156 180.682H43.284C41.9716 169.332 41.9716 157.728 43.284 146.378H62.5156C60.349 157.583 60.349 169.477 62.5156 180.682V180.682Z" fill="#3DAD9D"/>
<g filter="url(#filter1_d)">
<rect x="25.3001" y="84.86" width="136.283" height="0.276221" rx="0.13811" stroke="black" stroke-width="0.276221"/>
</g>
<path d="M42.2996 206.415H0.05896V208.996H42.2996V206.415Z" fill="#3DAD9D"/>
<path d="M159.739 251.657H117.499V254.238H159.739V251.657Z" fill="#3DAD9D"/>
<path d="M42.2996 224.477H0.05896V227.058H42.2996V224.477Z" fill="#3DAD9D"/>
<path d="M159.739 269.719H117.499V272.3H159.739V269.719Z" fill="#3DAD9D"/>
<path d="M346.147 145.995H359.567C360.483 138.988 360.483 131.824 359.567 124.817H346.147C347.659 131.734 347.659 139.077 346.147 145.995V145.995Z" fill="#3DAD9D"/>
<path d="M355.821 247.697L371.842 262.924H339.799L355.821 247.697Z" fill="#3DAD9D"/>
<path d="M350.632 201.25V207.375L359.632 199.208L350.632 191.042V197.167C340.687 197.167 332.632 204.476 332.632 213.5C332.632 216.705 333.667 219.686 335.422 222.198L338.707 219.217C337.695 217.522 337.132 215.562 337.132 213.5C337.132 206.742 343.185 201.25 350.632 201.25ZM365.842 204.803L362.557 207.783C363.547 209.498 364.132 211.438 364.132 213.5C364.132 220.258 358.08 225.75 350.632 225.75V219.625L341.632 227.792L350.632 235.958V229.833C360.577 229.833 368.632 222.524 368.632 213.5C368.632 210.295 367.597 207.314 365.842 204.803V204.803Z" fill="#3F3D56"/>
<defs>
<filter id="filter0_d" x="297.637" y="0.756592" width="196.425" height="308.181" filterUnits="userSpaceOnUse" color-interpolation-filters="sRGB">
<feFlood flood-opacity="0" result="BackgroundImageFix"/>
<feColorMatrix in="SourceAlpha" type="matrix" values="0 0 0 0 0 0 0 0 0 0 0 0 0 0 0 0 0 0 127 0"/>
<feOffset dy="4"/>
<feGaussianBlur stdDeviation="2"/>
<feColorMatrix type="matrix" values="0 0 0 0 0 0 0 0 0 0 0 0 0 0 0 0 0 0 0.25 0"/>
<feBlend mode="normal" in2="BackgroundImageFix" result="effect1_dropShadow"/>
<feBlend mode="normal" in="SourceGraphic" in2="effect1_dropShadow" result="shape"/>
</filter>
<filter id="filter1_d" x="21.162" y="84.7219" width="144.56" height="8.55244" filterUnits="userSpaceOnUse" color-interpolation-filters="sRGB">
<feFlood flood-opacity="0" result="BackgroundImageFix"/>
<feColorMatrix in="SourceAlpha" type="matrix" values="0 0 0 0 0 0 0 0 0 0 0 0 0 0 0 0 0 0 127 0"/>
<feOffset dy="4"/>
<feGaussianBlur stdDeviation="2"/>
<feColorMatrix type="matrix" values="0 0 0 0 0 0 0 0 0 0 0 0 0 0 0 0 0 0 0.25 0"/>
<feBlend mode="normal" in2="BackgroundImageFix" result="effect1_dropShadow"/>
<feBlend mode="normal" in="SourceGraphic" in2="effect1_dropShadow" result="shape"/>
</filter>
</defs>
</svg>
