<svg width="66" height="68" viewBox="0 0 66 68" fill="none" xmlns="http://www.w3.org/2000/svg">
<g clip-path="url(#clip0)">
<path d="M32.8528 19.4277C23.6251 19.4277 16.182 26.1408 16.182 34.4634C16.182 42.7861 23.6251 49.4992 32.8528 49.4992C42.0805 49.4992 49.5235 42.7861 49.5235 34.4634C49.5235 26.1408 42.0805 19.4277 32.8528 19.4277ZM32.8528 44.2386C26.8896 44.2386 22.0146 39.8548 22.0146 34.4634C22.0146 29.072 26.8751 24.6882 32.8528 24.6882C38.8305 24.6882 43.691 29.072 43.691 34.4634C43.691 39.8548 38.816 44.2386 32.8528 44.2386ZM54.0939 18.8126C54.0939 20.7625 52.3528 22.3197 50.2055 22.3197C48.0436 22.3197 46.3171 20.7494 46.3171 18.8126C46.3171 16.8759 48.0581 15.3056 50.2055 15.3056C52.3528 15.3056 54.0939 16.8759 54.0939 18.8126ZM65.1352 22.372C64.8885 17.6742 63.6988 13.5128 59.8829 10.0843C56.0816 6.65581 51.4677 5.58276 46.259 5.34722C40.8907 5.07241 24.8003 5.07241 19.432 5.34722C14.2378 5.56968 9.62399 6.64272 5.80814 10.0712C1.99229 13.4998 0.817069 17.6611 0.555908 22.3589C0.251221 27.2007 0.251221 41.713 0.555908 46.5548C0.80256 51.2527 1.99229 55.414 5.80814 58.8425C9.62399 62.271 14.2233 63.3441 19.432 63.5796C24.8003 63.8544 40.8907 63.8544 46.259 63.5796C51.4677 63.3572 56.0816 62.2841 59.8829 58.8425C63.6843 55.414 64.874 51.2527 65.1352 46.5548C65.4398 41.713 65.4398 27.2138 65.1352 22.372ZM58.1999 51.75C57.0682 54.3148 54.8773 56.2908 52.0191 57.3246C47.7389 58.8556 37.5827 58.5023 32.8528 58.5023C28.1229 58.5023 17.9521 58.8425 13.6865 57.3246C10.8427 56.3039 8.65189 54.3279 7.50569 51.75C5.80814 47.8896 6.19988 38.7294 6.19988 34.4634C6.19988 30.1974 5.82265 21.0242 7.50569 17.1769C8.63738 14.6121 10.8282 12.6361 13.6865 11.6023C17.9666 10.0712 28.1229 10.4246 32.8528 10.4246C37.5827 10.4246 47.7535 10.0843 52.0191 11.6023C54.8628 12.623 57.0537 14.599 58.1999 17.1769C59.8974 21.0373 59.5057 30.1974 59.5057 34.4634C59.5057 38.7294 59.8974 47.9027 58.1999 51.75Z" fill="white"/>
</g>
<defs>
<clipPath id="clip0">
<rect width="65" height="67" fill="white" transform="translate(0.338379 0.976562)"/>
</clipPath>
</defs>
</svg>
