<svg width="89" height="87" viewBox="0 0 89 87" fill="none" xmlns="http://www.w3.org/2000/svg">
<g clip-path="url(#clip0)">
<path d="M24.6571 77.2887C24.6596 78.3452 25.1246 79.3799 25.9971 80.26L30.2696 84.5751C30.9994 85.3128 31.9894 85.9178 33.1514 86.3363C34.3133 86.7547 35.6112 86.9737 36.9296 86.9737H52.3571C53.6755 86.9737 54.9734 86.7547 56.1353 86.3363C57.2973 85.9178 58.2872 85.3128 59.0171 84.5751L63.2896 80.26C64.1617 79.3797 64.6278 78.3461 64.6296 77.2887L64.6396 70.8471H24.6446L24.6571 77.2887ZM0.64209 30.5346C0.64209 37.9873 4.75459 44.7867 11.5321 49.982C15.6621 53.1482 22.1221 59.7628 24.5846 65.3427C24.5946 65.3864 24.6021 65.4301 24.6121 65.4737H64.6721C64.6821 65.4301 64.6896 65.3881 64.6996 65.3427C67.1621 59.7628 73.6221 53.1482 77.7521 49.982C84.5296 44.7867 88.6421 37.9873 88.6421 30.5346C88.6421 14.1761 68.8696 0.921676 44.5046 0.972067C19.0021 1.02414 0.64209 14.9084 0.64209 30.5346ZM44.6421 17.0971C33.6146 17.0971 24.6421 23.1255 24.6421 30.5346C24.6421 32.0194 22.8521 33.2221 20.6421 33.2221C18.4321 33.2221 16.6421 32.0194 16.6421 30.5346C16.6421 20.1608 29.2021 11.7221 44.6421 11.7221C46.8521 11.7221 48.6421 12.9247 48.6421 14.4096C48.6421 15.8944 46.8521 17.0971 44.6421 17.0971Z" fill="#76A59D"/>
</g>
<defs>
<clipPath id="clip0">
<rect width="88" height="86" fill="white" transform="translate(0.64209 0.972656)"/>
</clipPath>
</defs>
</svg>
