<svg width="69" height="56" viewBox="0 0 69 56" fill="none" xmlns="http://www.w3.org/2000/svg">
<g clip-path="url(#clip0)">
<path d="M13.6539 49.1029H1.81777V16.973H13.6539V49.1029ZM7.72946 12.5902C3.94465 12.5902 0.874756 9.94766 0.874756 6.75723C0.874756 5.22475 1.59695 3.75503 2.88245 2.67141C4.16796 1.58778 5.91148 0.979004 7.72946 0.979004C9.54744 0.979004 11.291 1.58778 12.5765 2.67141C13.862 3.75503 14.5842 5.22475 14.5842 6.75723C14.5842 9.94766 11.513 12.5902 7.72946 12.5902ZM57.9527 49.1029H46.1421V33.4623C46.1421 29.7348 46.0529 24.9545 39.9882 24.9545C33.8344 24.9545 32.8914 29.0043 32.8914 33.1937V49.1029H21.068V16.973H32.4199V21.3559H32.5856C34.1658 18.8314 38.0257 16.1674 43.7845 16.1674C55.7634 16.1674 57.9654 22.8168 57.9654 31.4535V49.1029H57.9527Z" fill="white"/>
</g>
<defs>
<clipPath id="clip0">
<rect width="68" height="55" fill="white" transform="translate(0.874756 0.976562)"/>
</clipPath>
</defs>
</svg>
