<svg width="145" height="121" viewBox="0 0 145 121" fill="none" xmlns="http://www.w3.org/2000/svg">
<path d="M18.4648 60.3258C18.4648 71.3616 23.9401 81.2989 32.6645 88.4897L18.4648 100.275H54.5657V70.313L41.0881 81.4986C34.5899 76.0556 30.4985 68.6152 30.4985 60.3258C30.4985 47.2925 40.5465 36.2067 54.5657 32.1119V21.6753C33.8077 26.1196 18.4648 41.6996 18.4648 60.3258ZM66.5993 85.2938H78.633V75.3066H66.5993V85.2938ZM126.767 20.377H90.6666V50.3386L104.144 39.1529C110.642 44.5959 114.734 52.0364 114.734 60.3258C114.734 73.3591 104.686 84.4449 90.6666 88.5396V98.9763C111.425 94.532 126.767 78.9519 126.767 60.3258C126.767 49.2899 121.292 39.3526 112.568 32.1619L126.767 20.377ZM66.5993 65.3194H78.633V35.3578H66.5993V65.3194Z" fill="#76A59D"/>
</svg>
