<svg width="64" height="46" viewBox="0 0 64 46" fill="none" xmlns="http://www.w3.org/2000/svg">
<g clip-path="url(#clip0)">
<path d="M56.7633 14.3108C56.8033 14.7106 56.8033 15.1104 56.8033 15.5101C56.8033 27.7023 43.8116 41.7506 20.0667 41.7506C12.7513 41.7506 5.95565 40.2372 0.239258 37.6104C1.27863 37.696 2.2779 37.7246 3.35727 37.7246C9.39333 37.7246 14.9499 36.2684 19.3871 33.7842C13.7107 33.6986 8.95368 31.0431 7.3147 27.3883C8.11426 27.4739 8.91369 27.531 9.75324 27.531C10.9125 27.531 12.0718 27.4167 13.1511 27.217C7.23484 26.3603 2.79753 22.6484 2.79753 18.1656V18.0514C4.51637 18.7367 6.51526 19.165 8.63376 19.222C5.15597 17.5659 2.87751 14.7391 2.87751 11.5412C2.87751 9.82799 3.51698 8.25756 4.63634 6.88699C10.9923 12.4834 20.5463 16.1382 31.2594 16.538C31.0595 15.8527 30.9396 15.139 30.9396 14.4251C30.9396 9.34257 36.696 5.20239 43.8514 5.20239C47.569 5.20239 50.9268 6.31597 53.2854 8.11482C56.2034 7.7151 59.0017 6.94412 61.4802 5.88768C60.5207 8.02922 58.482 9.82808 55.8038 10.9701C58.4022 10.7704 60.9206 10.2563 63.239 9.54252C61.4804 11.3699 59.2817 12.9973 56.7633 14.3108Z" fill="white"/>
</g>
<defs>
<clipPath id="clip0">
<rect width="63" height="45" fill="white" transform="translate(0.239258 0.976562)"/>
</clipPath>
</defs>
</svg>
