<svg width="560" height="403" viewBox="0 0 560 403" fill="none" xmlns="http://www.w3.org/2000/svg">
<g clip-path="url(#clip0)">
<path d="M509.875 220.716C505.338 235.063 499.695 248.98 493.006 262.323C492.637 263.055 492.263 263.786 491.888 264.517V116.502C492.263 115.279 492.637 114.063 493.006 112.84C508.047 63.3375 519.221 17.5038 515.526 0.0240479C516.61 4.42398 543.367 115.537 509.875 220.716Z" fill="#E6E6E6"/>
<path d="M559.895 150.958C559.481 153.74 546.676 235.474 493.006 283.999C492.637 284.341 492.263 284.671 491.888 285V240.833C492.257 240.426 492.632 240.018 493.006 239.604C498.506 233.55 504.213 227.178 509.875 220.716C534.15 192.979 557.547 163.601 559.895 150.958Z" fill="#E6E6E6"/>
<path d="M63.2173 402.024C97.6369 402.024 125.54 399.34 125.54 396.03C125.54 392.719 97.6369 390.035 63.2173 390.035C28.7976 390.035 0.89502 392.719 0.89502 396.03C0.89502 399.34 28.7976 402.024 63.2173 402.024Z" fill="#E6E6E6"/>
<path d="M489.653 71.7297H136.652C136.211 71.7296 135.775 71.8226 135.368 72.0033C134.961 72.184 134.591 72.4489 134.28 72.7829C133.968 73.1169 133.721 73.5134 133.553 73.9499C133.384 74.3863 133.298 74.854 133.298 75.3264V285.132C133.298 285.605 133.384 286.072 133.553 286.509C133.721 286.945 133.968 287.342 134.28 287.676C134.591 288.01 134.961 288.275 135.368 288.455C135.775 288.636 136.211 288.729 136.652 288.729H489.653C490.093 288.729 490.529 288.636 490.936 288.455C491.343 288.275 491.713 288.01 492.024 287.676C492.336 287.342 492.583 286.945 492.751 286.509C492.92 286.072 493.007 285.605 493.006 285.132V75.3264C493.007 74.854 492.92 74.3863 492.751 73.9499C492.583 73.5134 492.336 73.1169 492.024 72.7829C491.713 72.4489 491.343 72.184 490.936 72.0033C490.529 71.8226 490.093 71.7296 489.653 71.7297V71.7297ZM491.889 285.132C491.889 285.447 491.831 285.759 491.718 286.05C491.606 286.341 491.441 286.605 491.234 286.828C491.026 287.051 490.78 287.227 490.508 287.348C490.237 287.468 489.946 287.53 489.653 287.53H136.652C136.358 287.53 136.067 287.468 135.796 287.348C135.525 287.227 135.278 287.051 135.07 286.828C134.863 286.605 134.698 286.341 134.586 286.05C134.473 285.759 134.416 285.447 134.416 285.132V75.3264C134.416 75.0115 134.473 74.6997 134.586 74.4087C134.698 74.1178 134.863 73.8534 135.07 73.6307C135.278 73.4081 135.525 73.2314 135.796 73.111C136.067 72.9905 136.358 72.9285 136.652 72.9286H489.653C489.946 72.9285 490.237 72.9905 490.508 73.111C490.78 73.2314 491.026 73.4081 491.234 73.6307C491.441 73.8534 491.606 74.1178 491.718 74.4087C491.831 74.6997 491.889 75.0115 491.889 75.3264V285.132Z" fill="#E6E6E6"/>
<path d="M169.075 71.7297H167.958V288.729H169.075V71.7297Z" fill="#E6E6E6"/>
<path d="M141.017 90.4311C141.017 88.2194 141.629 86.0574 142.775 84.2185C143.92 82.3796 145.549 80.9463 147.454 80.1C149.359 79.2536 151.456 79.0322 153.478 79.4636C155.501 79.8951 157.359 80.9601 158.817 82.524C160.275 84.0879 161.268 86.0804 161.67 88.2495C162.073 90.4186 161.866 92.667 161.077 94.7103C160.288 96.7536 158.952 98.5 157.237 99.7287C155.522 100.957 153.506 101.613 151.444 101.613C148.68 101.61 146.029 100.431 144.075 98.3344C142.12 96.238 141.02 93.3957 141.017 90.4311V90.4311Z" fill="#3DAD9D"/>
<path d="M141.017 134.191C141.017 131.979 141.629 129.817 142.775 127.978C143.92 126.139 145.549 124.706 147.454 123.859C149.359 123.013 151.456 122.792 153.478 123.223C155.501 123.655 157.359 124.72 158.817 126.284C160.275 127.847 161.268 129.84 161.67 132.009C162.073 134.178 161.866 136.427 161.077 138.47C160.288 140.513 158.952 142.26 157.237 143.488C155.522 144.717 153.506 145.373 151.444 145.373C148.68 145.369 146.029 144.19 144.075 142.094C142.12 139.998 141.02 137.155 141.017 134.191V134.191Z" fill="#3DAD9D"/>
<path d="M141.017 177.95C141.017 175.738 141.629 173.576 142.775 171.738C143.92 169.899 145.549 168.465 147.454 167.619C149.359 166.773 151.456 166.551 153.478 166.983C155.501 167.414 157.359 168.479 158.817 170.043C160.275 171.607 161.268 173.599 161.67 175.769C162.073 177.938 161.866 180.186 161.077 182.229C160.288 184.273 158.952 186.019 157.237 187.248C155.522 188.477 153.506 189.132 151.444 189.132C148.68 189.129 146.029 187.95 144.075 185.853C142.12 183.757 141.02 180.915 141.017 177.95V177.95Z" fill="#3DAD9D"/>
<path d="M147.33 89.328H150.416V86.0189C150.415 85.8738 150.442 85.7301 150.493 85.5959C150.545 85.4618 150.62 85.3399 150.716 85.2372C150.812 85.1345 150.925 85.053 151.05 84.9974C151.175 84.9418 151.309 84.9132 151.444 84.9132C151.579 84.9132 151.713 84.9418 151.838 84.9974C151.963 85.053 152.077 85.1345 152.172 85.2372C152.268 85.3399 152.344 85.4618 152.395 85.5959C152.447 85.7301 152.473 85.8738 152.473 86.0189V89.328H155.558C155.831 89.328 156.093 89.4443 156.286 89.6511C156.478 89.858 156.587 90.1386 156.587 90.4311C156.587 90.7237 156.478 91.0042 156.286 91.2111C156.093 91.4179 155.831 91.5342 155.558 91.5342H152.473V94.8433C152.472 95.1355 152.363 95.4154 152.171 95.6217C151.978 95.828 151.717 95.9439 151.444 95.9439C151.172 95.9439 150.911 95.828 150.718 95.6217C150.525 95.4154 150.416 95.1355 150.416 94.8433V91.5341H147.33C147.195 91.5341 147.061 91.5056 146.936 91.4502C146.812 91.3947 146.698 91.3135 146.603 91.2111C146.507 91.1086 146.431 90.987 146.38 90.8532C146.328 90.7194 146.302 90.5759 146.302 90.4311C146.302 90.2862 146.328 90.1428 146.38 90.009C146.431 89.8751 146.507 89.7535 146.603 89.6511C146.698 89.5487 146.812 89.4674 146.936 89.412C147.061 89.3566 147.195 89.328 147.33 89.328V89.328Z" fill="white"/>
<path d="M149.493 137.306H158.223C158.234 137.307 158.245 137.306 158.255 137.304L154.127 129.634C154.102 129.587 154.065 129.547 154.021 129.519C153.977 129.491 153.926 129.477 153.875 129.477C153.824 129.477 153.774 129.491 153.73 129.519C153.685 129.547 153.649 129.587 153.624 129.634L150.853 134.781L150.72 135.027L149.493 137.306Z" fill="white"/>
<path opacity="0.2" d="M149.494 137.307H152.474L151.011 135.028L150.906 134.863L150.853 134.781L150.72 135.028L149.494 137.307Z" fill="black"/>
<path d="M144.633 137.306H152.183L150.72 135.027L150.615 134.863L148.708 131.893C148.675 131.848 148.632 131.81 148.584 131.784C148.536 131.757 148.484 131.741 148.43 131.738C148.376 131.734 148.322 131.743 148.271 131.764C148.22 131.784 148.174 131.816 148.136 131.856C148.126 131.868 148.117 131.88 148.108 131.893L144.633 137.306Z" fill="white"/>
<path d="M150.323 131.451C151.038 131.451 151.617 130.83 151.617 130.064C151.617 129.298 151.038 128.677 150.323 128.677C149.609 128.677 149.03 129.298 149.03 130.064C149.03 130.83 149.609 131.451 150.323 131.451Z" fill="white"/>
<path d="M332.81 100.406L207.223 210.773L207.874 211.625L333.461 101.258L332.81 100.406Z" fill="#E6E6E6"/>
<path d="M207.891 100.386L207.238 101.236L332.792 212.196L333.445 211.346L207.891 100.386Z" fill="#E6E6E6"/>
<path d="M331.277 98.8715H209.082C208.129 98.8727 207.216 99.2791 206.542 100.002C205.868 100.724 205.489 101.704 205.488 102.726V208.996C205.489 210.018 205.868 210.998 206.542 211.72C207.216 212.443 208.129 212.849 209.082 212.851H331.277C332.229 212.85 333.143 212.443 333.817 211.72C334.49 210.998 334.869 210.018 334.871 208.996V102.726C334.869 101.704 334.49 100.724 333.817 100.002C333.143 99.2791 332.229 98.8726 331.277 98.8715V98.8715ZM209.082 211.749C208.402 211.749 207.749 211.458 207.268 210.942C206.787 210.426 206.516 209.726 206.515 208.996V102.726C206.516 101.996 206.787 101.296 207.268 100.78C207.749 100.264 208.402 99.9736 209.082 99.9727H331.277C331.957 99.9736 332.61 100.264 333.091 100.78C333.572 101.296 333.843 101.996 333.844 102.726V208.996C333.843 209.726 333.572 210.426 333.091 210.942C332.61 211.458 331.957 211.749 331.277 211.749H209.082Z" fill="#E6E6E6"/>
<path d="M354.826 158.736C353.775 158.761 352.937 159.982 352.954 161.464C352.971 162.913 353.799 164.081 354.826 164.105H453.729C454.78 164.129 455.646 162.947 455.663 161.464C455.681 159.982 454.843 158.761 453.792 158.736C453.771 158.736 453.75 158.736 453.729 158.736H354.826Z" fill="#E6E6E6"/>
<path d="M354.826 143.185C353.775 143.209 352.937 144.43 352.954 145.913C352.971 147.361 353.799 148.529 354.826 148.553H408.438C409.489 148.577 410.355 147.395 410.372 145.913C410.389 144.43 409.551 143.209 408.5 143.185C408.479 143.184 408.459 143.184 408.438 143.185H354.826Z" fill="#3DAD9D"/>
<path d="M354.826 175.029C353.775 175.053 352.937 176.274 352.954 177.757C352.971 179.205 353.799 180.373 354.826 180.397H453.729C454.78 180.421 455.646 179.239 455.663 177.757C455.681 176.274 454.843 175.053 453.792 175.029C453.771 175.028 453.75 175.028 453.729 175.029H354.826Z" fill="#E6E6E6"/>
<path d="M354.826 191.058C353.775 191.083 352.937 192.304 352.954 193.787C352.971 195.235 353.799 196.403 354.826 196.427H453.729C454.78 196.451 455.646 195.269 455.663 193.787C455.681 192.304 454.843 191.083 453.792 191.058C453.771 191.058 453.75 191.058 453.729 191.058H354.826Z" fill="#E6E6E6"/>
<path d="M354.826 207.351C353.775 207.375 352.937 208.596 352.954 210.079C352.971 211.527 353.799 212.695 354.826 212.719H453.729C454.78 212.743 455.646 211.561 455.663 210.079C455.681 208.596 454.843 207.375 453.792 207.351C453.771 207.35 453.75 207.35 453.729 207.351H354.826Z" fill="#E6E6E6"/>
<path d="M205.732 223.896C204.681 223.921 203.843 225.142 203.86 226.625C203.877 228.073 204.705 229.241 205.732 229.265H454.432C455.483 229.289 456.349 228.107 456.366 226.625C456.383 225.142 455.545 223.921 454.494 223.896C454.473 223.896 454.453 223.896 454.432 223.896H205.732Z" fill="#E6E6E6"/>
<path d="M205.732 240.189C204.681 240.213 203.843 241.435 203.86 242.917C203.877 244.365 204.705 245.533 205.732 245.557H454.432C455.483 245.581 456.349 244.4 456.366 242.917C456.383 241.435 455.545 240.213 454.494 240.189C454.473 240.188 454.453 240.188 454.432 240.189H205.732Z" fill="#E6E6E6"/>
<path d="M205.732 256.218C204.681 256.243 203.843 257.464 203.86 258.947C203.877 260.395 204.705 261.563 205.732 261.587H454.432C455.483 261.611 456.349 260.429 456.366 258.947C456.383 257.464 455.545 256.243 454.494 256.218C454.473 256.218 454.453 256.218 454.432 256.218H205.732Z" fill="#E6E6E6"/>
<path d="M101.253 378.592L86.2194 378.085L64.6148 281.536L27.7639 376.116L10.9351 375.549C26.934 301.899 43.0313 226.893 55.2025 206.081L89.0004 216.573L101.253 378.592Z" fill="#2F2E41"/>
<path d="M35.9828 398.549L34.9395 398.639C33.8872 398.729 32.8298 398.554 31.8519 398.128L11.6042 395.554C10.7494 395.181 9.97187 394.631 9.31656 393.934C8.66124 393.237 8.14108 392.408 7.7861 391.495C7.43111 390.581 7.24832 389.601 7.24829 388.611C7.24826 387.622 7.43098 386.642 7.7859 385.728L12.1679 374.45H26.3539L41.0082 387.195C41.6834 388.244 42.0894 389.464 42.1852 390.734C42.2809 392.004 42.0631 393.278 41.5537 394.429C41.0443 395.58 40.2612 396.567 39.2833 397.29C38.3053 398.014 37.167 398.448 35.9828 398.549V398.549Z" fill="#2F2E41"/>
<path d="M110.322 398.549L109.279 398.639C108.227 398.729 107.169 398.554 106.191 398.128L85.9438 395.554C85.089 395.181 84.3115 394.631 83.6562 393.934C83.0008 393.237 82.4807 392.408 82.1257 391.495C81.7707 390.581 81.5879 389.601 81.5879 388.611C81.5879 387.622 81.7706 386.642 82.1255 385.728L86.5075 374.45H100.693L115.348 387.195C116.023 388.244 116.429 389.464 116.525 390.734C116.621 392.004 116.403 393.278 115.893 394.429C115.384 395.58 114.601 396.567 113.623 397.29C112.645 398.014 111.507 398.448 110.322 398.549V398.549Z" fill="#2F2E41"/>
<path d="M98.6492 192.373L72.0847 173.594L84.3639 165.619L101.752 177.161L130.038 181.694L134.338 177.122C135.046 176.368 135.903 175.794 136.845 175.442C137.788 175.09 138.792 174.969 139.783 175.088C140.775 175.206 141.729 175.561 142.576 176.127C143.424 176.693 144.142 177.455 144.678 178.357V178.357C145.253 179.323 145.603 180.422 145.7 181.563C145.797 182.704 145.637 183.854 145.234 184.915C144.831 185.976 144.197 186.918 143.385 187.662C142.572 188.406 141.606 188.931 140.565 189.192L136.322 190.256L98.6492 192.373Z" fill="#A0616A"/>
<path d="M72.2199 178.74C69.2532 172.157 64.0896 166.757 57.074 162.356L70.8627 147.528C77.4981 151.54 83.3207 157.96 88.7322 165.598L72.2199 178.74Z" fill="#E6E6E6"/>
<path d="M71.6741 131.653C80.1577 131.653 87.035 124.277 87.035 115.179C87.035 106.08 80.1577 98.7047 71.6741 98.7047C63.1905 98.7047 56.3132 106.08 56.3132 115.179C56.3132 124.277 63.1905 131.653 71.6741 131.653Z" fill="#A0616A"/>
<path d="M79.439 148.791L59.8718 143.545C61.6194 138.189 60.966 130.144 59.8718 121.606H79.439C76.5898 131.571 75.7785 141.129 79.439 148.791Z" fill="#A0616A"/>
<path d="M90.112 220.331L53.4235 211.327C49.5444 182.332 48.7189 152.069 60.3165 141.637L78.5496 144.022L92.2936 162.927C93.3556 164.388 94.2667 165.968 95.0108 167.64C97.9659 174.278 97.4062 182.041 94.011 188.433C88.8514 198.146 87.2754 208.713 90.112 220.331Z" fill="#E6E6E6"/>
<path d="M57.032 206.667L63.0161 173.154L74.5925 182.258L71.3217 203.907L89.3761 227.523L94.9624 230.028C95.883 230.441 96.7057 231.07 97.3701 231.868C98.0345 232.667 98.5238 233.615 98.8021 234.642C99.0804 235.67 99.1406 236.751 98.9783 237.807C98.816 238.863 98.4353 239.867 97.8642 240.744C97.2527 241.684 96.4401 242.452 95.4946 242.986C94.5491 243.519 93.4981 243.801 92.4299 243.809C91.3616 243.817 90.3071 243.551 89.3547 243.031C88.4024 242.512 87.58 241.756 86.9564 240.825L84.4127 237.031L57.032 206.667Z" fill="#A0616A"/>
<path d="M77.2878 161.143C74.7736 167.94 74.5586 175.671 76.2819 184.189L56.7717 183.328C55.0385 175.373 55.5083 166.432 57.093 156.991L77.2878 161.143Z" fill="#E6E6E6"/>
<path d="M78.3273 97.044C78.3273 97.044 60.0942 86.0745 51.2 106.106C42.3058 126.137 44.9741 143.783 44.9741 143.783L61.8731 143.306L65.8755 139.014L68.9884 142.83L69.0357 142.747C73.5224 134.779 76.0953 125.742 76.5236 116.445C76.6652 113.902 77.4824 111.567 79.6615 110.398C85.8874 107.06 87.2215 107.06 87.2215 107.06C87.2215 107.06 90.7792 97.9978 78.3273 97.044Z" fill="#2F2E41"/>
<path d="M155.636 173.155H147.312C147.04 173.148 146.774 173.244 146.562 173.427C146.349 173.609 146.203 173.866 146.15 174.152C146.122 174.324 146.13 174.5 146.173 174.669C146.216 174.837 146.293 174.993 146.398 175.127C146.503 175.26 146.634 175.367 146.781 175.441C146.929 175.514 147.089 175.552 147.252 175.552H149.729C149.887 175.552 150.039 175.62 150.151 175.74C150.263 175.86 150.326 176.023 150.326 176.193V181.483C150.32 181.774 150.41 182.059 150.58 182.287C150.75 182.515 150.99 182.672 151.256 182.729C151.417 182.758 151.581 182.75 151.738 182.704C151.895 182.658 152.041 182.576 152.165 182.463C152.289 182.35 152.389 182.21 152.458 182.052C152.526 181.894 152.562 181.721 152.562 181.547V176.193C152.562 176.023 152.625 175.86 152.737 175.74C152.849 175.62 153.001 175.552 153.16 175.552H155.576C155.849 175.559 156.114 175.462 156.327 175.28C156.539 175.098 156.685 174.841 156.739 174.555C156.766 174.383 156.758 174.206 156.715 174.038C156.672 173.87 156.596 173.714 156.491 173.58C156.386 173.447 156.255 173.34 156.107 173.266C155.96 173.193 155.799 173.155 155.636 173.155Z" fill="white"/>
<path d="M155.636 182.746C156.254 182.746 156.754 182.209 156.754 181.547C156.754 180.885 156.254 180.348 155.636 180.348C155.019 180.348 154.518 180.885 154.518 181.547C154.518 182.209 155.019 182.746 155.636 182.746Z" fill="white"/>
</g>
<defs>
<clipPath id="clip0">
<rect width="559" height="402" fill="white" transform="translate(0.89502 0.0240479)"/>
</clipPath>
</defs>
</svg>
