<svg width="417" height="296" viewBox="0 0 417 296" fill="none" xmlns="http://www.w3.org/2000/svg">
<g clip-path="url(#clip0)">
<path d="M416.714 230.987C416.722 232.969 416.064 234.875 414.885 236.284C413.705 237.693 412.099 238.49 410.422 238.501H133.589C132.758 238.496 131.937 238.297 131.171 237.917C130.405 237.536 129.71 236.982 129.126 236.284C128.542 235.586 128.079 234.759 127.766 233.85C127.452 232.942 127.292 231.969 127.297 230.987V7.51391C127.288 5.53146 127.946 3.6261 129.126 2.21697C130.306 0.807838 131.911 0.0103673 133.589 0H410.422C411.252 0.00510599 412.074 0.203506 412.84 0.583868C413.605 0.96423 414.3 1.51911 414.884 2.21682C415.469 2.91453 415.931 3.74142 416.245 4.65026C416.559 5.5591 416.718 6.5321 416.714 7.51371V7.51392V230.987Z" fill="#E6E6E6"/>
<path d="M413.448 227.327C413.448 229.254 412.8 231.102 411.647 232.465C410.495 233.827 408.931 234.593 407.3 234.593H136.9C135.269 234.593 133.705 233.827 132.553 232.465C131.4 231.102 130.752 229.254 130.752 227.327V11.2757C130.752 9.34883 131.4 7.50085 132.553 6.13833C133.705 4.7758 135.269 4.01035 136.9 4.01035H407.313C408.941 4.01422 410.502 4.78138 411.652 6.14349C412.802 7.50559 413.448 9.35136 413.448 11.2757V227.327Z" fill="white"/>
<path d="M145.204 13.3905H399.285C400.253 13.3905 401.181 13.8449 401.865 14.6536C402.549 15.4624 402.934 16.5593 402.934 17.703V220.062C402.934 221.206 402.549 222.302 401.865 223.111C401.181 223.92 400.253 224.374 399.285 224.374H145.204C144.236 224.374 143.308 223.92 142.623 223.111C141.939 222.302 141.555 221.206 141.555 220.062V17.703C141.555 16.5593 141.939 15.4624 142.623 14.6536C143.308 13.8449 144.236 13.3905 145.204 13.3905V13.3905Z" fill="#E6E6E6"/>
<path d="M148.42 18.2439H395.793C396.76 18.2439 397.688 18.6982 398.373 19.507C399.057 20.3157 399.442 21.4126 399.442 22.5563V214.117C399.442 215.261 399.057 216.358 398.373 217.166C397.688 217.975 396.76 218.429 395.793 218.429H148.42C147.452 218.429 146.524 217.975 145.84 217.166C145.155 216.358 144.771 215.261 144.771 214.117V22.5563C144.771 21.4126 145.155 20.3157 145.84 19.507C146.524 18.6982 147.452 18.2439 148.42 18.2439V18.2439Z" fill="white"/>
<path d="M323.082 151.317C322.108 151.316 321.146 151.074 320.256 150.606C320.049 150.497 319.852 150.365 319.667 150.21L301.689 135.255C300.778 134.496 300.034 133.49 299.52 132.32C299.006 131.151 298.738 129.852 298.738 128.535V108.139C298.738 106.821 299.006 105.523 299.52 104.353C300.033 103.184 300.778 102.177 301.689 101.419L319.667 86.4631C319.852 86.3086 320.049 86.1761 320.256 86.0675C321.315 85.5111 322.475 85.2762 323.631 85.3842C324.786 85.4922 325.9 85.9397 326.872 86.686C327.844 87.4322 328.642 88.4536 329.195 89.6574C329.748 90.8611 330.038 92.209 330.038 93.5787V143.095C330.038 145.275 329.305 147.366 328 148.907C326.696 150.449 324.927 151.315 323.082 151.315L323.082 151.317Z" fill="#3F3D56"/>
<path d="M282.847 155.327H232.706C222.476 155.317 214.186 147.502 214.175 137.859V98.8139C214.186 89.1708 222.476 81.356 232.706 81.3461H282.978C293.135 81.3575 301.366 89.1162 301.378 98.6906V137.859C301.367 147.502 293.077 155.317 282.847 155.327Z" fill="#3F3D56"/>
<path d="M372.166 206.111C380.402 206.111 387.079 198.221 387.079 188.488C387.079 178.754 380.402 170.864 372.166 170.864C363.93 170.864 357.254 178.754 357.254 188.488C357.254 198.221 363.93 206.111 372.166 206.111Z" fill="#E6E6E6"/>
<path d="M379.912 188.172L368.025 180.061C367.978 180.029 367.925 180.012 367.87 180.012C367.816 180.012 367.763 180.029 367.716 180.061C367.669 180.093 367.63 180.139 367.603 180.195C367.576 180.25 367.562 180.313 367.562 180.377V196.598C367.562 196.662 367.576 196.725 367.603 196.781C367.63 196.836 367.669 196.882 367.716 196.914C367.763 196.946 367.816 196.963 367.87 196.963C367.925 196.963 367.978 196.946 368.025 196.914L379.912 188.804C379.959 188.772 379.998 188.725 380.025 188.67C380.052 188.615 380.066 188.552 380.066 188.488C380.066 188.424 380.052 188.361 380.025 188.305C379.998 188.25 379.959 188.204 379.912 188.172L368.025 180.061C367.978 180.029 367.925 180.012 367.87 180.012C367.816 180.012 367.763 180.029 367.716 180.061C367.669 180.093 367.63 180.139 367.603 180.195C367.576 180.25 367.562 180.313 367.562 180.377V196.598C367.562 196.662 367.576 196.725 367.603 196.781C367.63 196.836 367.669 196.882 367.716 196.914C367.763 196.946 367.816 196.963 367.87 196.963C367.925 196.963 367.978 196.946 368.025 196.914L379.912 188.804C379.959 188.772 379.998 188.725 380.025 188.67C380.052 188.615 380.066 188.552 380.066 188.488C380.066 188.424 380.052 188.361 380.025 188.305C379.998 188.25 379.959 188.204 379.912 188.172V188.172Z" fill="white"/>
<path d="M352.804 257.787C352.813 259.77 352.155 261.675 350.975 263.084C349.795 264.493 348.19 265.291 346.512 265.301H69.679C68.8484 265.296 68.0267 265.098 67.261 264.717C66.4953 264.337 65.8005 263.782 65.2162 263.084C64.6319 262.387 64.1697 261.56 63.8558 260.651C63.5419 259.742 63.3826 258.769 63.3869 257.787V34.3145C63.3782 32.332 64.0361 30.4267 65.2161 29.0175C66.396 27.6084 68.0013 26.8109 69.6788 26.8006H346.512C347.343 26.8057 348.164 27.0041 348.93 27.3844C349.696 27.7648 350.39 28.3197 350.975 29.0174C351.559 29.7151 352.021 30.542 352.335 31.4508C352.649 32.3597 352.808 33.3327 352.804 34.3143V34.3145V257.787Z" fill="#E6E6E6"/>
<path d="M349.538 254.128C349.538 256.055 348.891 257.903 347.738 259.265C346.585 260.628 345.021 261.393 343.391 261.393H72.9899C71.3594 261.393 69.7957 260.628 68.6428 259.265C67.4899 257.903 66.8422 256.055 66.8422 254.128V38.0763C66.8422 36.1494 67.4899 34.3014 68.6428 32.9389C69.7957 31.5764 71.3594 30.8109 72.9899 30.8109H343.403C345.031 30.8148 346.592 31.5819 347.742 32.9441C348.892 34.3062 349.538 36.1519 349.538 38.0763V254.128Z" fill="white"/>
<path d="M81.2941 40.1911H335.375C336.343 40.1911 337.271 40.6454 337.955 41.4542C338.64 42.2629 339.024 43.3598 339.024 44.5036V246.862C339.024 248.006 338.64 249.103 337.955 249.912C337.271 250.72 336.343 251.175 335.375 251.175H81.2941C80.3263 251.175 79.3981 250.72 78.7138 249.912C78.0295 249.103 77.645 248.006 77.645 246.862V44.5036C77.645 43.3598 78.0295 42.2629 78.7138 41.4542C79.3981 40.6454 80.3263 40.1911 81.2941 40.1911Z" fill="#E6E6E6"/>
<path d="M84.5101 45.0444H331.883C332.85 45.0444 333.779 45.4988 334.463 46.3075C335.147 47.1163 335.532 48.2132 335.532 49.3569V240.918C335.532 242.061 335.147 243.158 334.463 243.967C333.779 244.776 332.85 245.23 331.883 245.23H84.5101C83.5423 245.23 82.6142 244.776 81.9299 243.967C81.2455 243.158 80.8611 242.061 80.8611 240.918V49.3569C80.8611 48.2132 81.2455 47.1163 81.9299 46.3075C82.6142 45.4988 83.5423 45.0444 84.5101 45.0444V45.0444Z" fill="white"/>
<path d="M259.172 178.118C258.199 178.117 257.236 177.875 256.346 177.406C256.14 177.298 255.942 177.165 255.757 177.011L237.779 162.055C236.868 161.297 236.124 160.29 235.61 159.121C235.096 157.951 234.828 156.653 234.828 155.335V134.939C234.828 133.621 235.096 132.323 235.61 131.154C236.124 129.984 236.868 128.978 237.779 128.219L255.757 113.264C255.942 113.109 256.14 112.977 256.346 112.868C257.405 112.312 258.565 112.077 259.721 112.185C260.876 112.293 261.99 112.74 262.962 113.486C263.934 114.233 264.732 115.254 265.285 116.458C265.838 117.662 266.128 119.01 266.128 120.379V169.895C266.128 172.075 265.395 174.166 264.091 175.708C262.786 177.249 261.017 178.115 259.172 178.115L259.172 178.118Z" fill="#3F3D56"/>
<path d="M218.937 182.128H168.796C158.566 182.118 150.276 174.303 150.265 164.66V125.614C150.276 115.971 158.566 108.157 168.796 108.147H219.068C229.225 108.158 237.456 115.917 237.468 125.491V164.66C237.457 174.303 229.167 182.118 218.937 182.128Z" fill="#3F3D56"/>
<path d="M308.256 232.912C316.492 232.912 323.169 225.022 323.169 215.288C323.169 205.555 316.492 197.665 308.256 197.665C300.02 197.665 293.344 205.555 293.344 215.288C293.344 225.022 300.02 232.912 308.256 232.912Z" fill="#E6E6E6"/>
<path d="M316.002 214.972L304.115 206.862C304.068 206.83 304.015 206.813 303.961 206.813C303.906 206.813 303.853 206.83 303.806 206.862C303.759 206.894 303.72 206.94 303.693 206.995C303.666 207.051 303.652 207.114 303.652 207.178V223.399C303.652 223.463 303.666 223.526 303.693 223.581C303.72 223.637 303.759 223.683 303.806 223.715C303.853 223.747 303.906 223.764 303.961 223.764C304.015 223.764 304.068 223.747 304.115 223.715L316.002 215.604C316.049 215.572 316.088 215.526 316.115 215.471C316.142 215.415 316.156 215.352 316.156 215.288C316.156 215.224 316.142 215.161 316.115 215.106C316.088 215.05 316.049 215.004 316.002 214.972L304.115 206.862C304.068 206.83 304.015 206.813 303.961 206.813C303.906 206.813 303.853 206.83 303.806 206.862C303.759 206.894 303.72 206.94 303.693 206.995C303.666 207.051 303.652 207.114 303.652 207.178V223.399C303.652 223.463 303.666 223.526 303.693 223.581C303.72 223.637 303.759 223.683 303.806 223.715C303.853 223.747 303.906 223.764 303.961 223.764C304.015 223.764 304.068 223.747 304.115 223.715L316.002 215.604C316.049 215.572 316.088 215.526 316.115 215.471C316.142 215.415 316.156 215.352 316.156 215.288C316.156 215.224 316.142 215.161 316.115 215.106C316.088 215.05 316.049 215.004 316.002 214.972Z" fill="white"/>
<path d="M290.131 288.486C290.14 290.469 289.482 292.374 288.302 293.783C287.122 295.192 285.517 295.99 283.839 296H7.00599C6.17538 295.995 5.35376 295.797 4.58804 295.416C3.82232 295.036 3.12748 294.481 2.54321 293.783C1.95894 293.085 1.49668 292.259 1.18281 291.35C0.868949 290.441 0.709631 289.468 0.713954 288.486V65.0133C0.705182 63.0309 1.36314 61.1255 2.54309 59.7164C3.72305 58.3072 5.32833 57.5098 7.00581 57.4994H283.839C284.67 57.5045 285.491 57.7029 286.257 58.0833C287.023 58.4636 287.717 59.0185 288.302 59.7162C288.886 60.4139 289.348 61.2408 289.662 62.1496C289.976 63.0585 290.135 64.0315 290.131 65.0131V65.0133V288.486Z" fill="#E6E6E6"/>
<path d="M286.865 284.827C286.865 286.754 286.218 288.602 285.065 289.964C283.912 291.327 282.348 292.092 280.718 292.092H10.3169C8.68643 292.092 7.12274 291.327 5.96982 289.964C4.8169 288.602 4.16919 286.754 4.16919 284.827V68.7752C4.16919 66.8483 4.8169 65.0003 5.96982 63.6377C7.12274 62.2752 8.68643 61.5098 10.3169 61.5098H280.73C282.358 61.5136 283.919 62.2808 285.069 63.6429C286.219 65.005 286.865 66.8508 286.865 68.7752V284.827Z" fill="white"/>
<path d="M18.6211 70.8899H272.702C273.67 70.8899 274.598 71.3442 275.282 72.153C275.967 72.9617 276.351 74.0586 276.351 75.2023V277.561C276.351 278.705 275.967 279.802 275.282 280.611C274.598 281.419 273.67 281.874 272.702 281.874H18.6211C17.6533 281.874 16.7252 281.419 16.0408 280.611C15.3565 279.802 14.972 278.705 14.972 277.561V75.2023C14.972 74.0586 15.3565 72.9617 16.0408 72.153C16.7252 71.3442 17.6533 70.8899 18.6211 70.8899V70.8899Z" fill="#E6E6E6"/>
<path d="M21.8372 75.7432H269.21C269.689 75.7432 270.163 75.8548 270.606 76.0715C271.049 76.2882 271.451 76.6059 271.79 77.0063C272.129 77.4068 272.398 77.8822 272.581 78.4054C272.764 78.9286 272.859 79.4894 272.859 80.0557V271.616C272.859 272.183 272.764 272.743 272.581 273.267C272.398 273.79 272.129 274.265 271.79 274.666C271.451 275.066 271.049 275.384 270.606 275.601C270.163 275.817 269.689 275.929 269.21 275.929H21.8372C20.8694 275.929 19.9412 275.474 19.2569 274.666C18.5726 273.857 18.1881 272.76 18.1881 271.616V80.0557C18.1881 78.9119 18.5726 77.8151 19.2569 77.0063C19.9412 76.1976 20.8694 75.7432 21.8372 75.7432V75.7432Z" fill="white"/>
<path d="M196.499 208.817C195.525 208.816 194.563 208.573 193.673 208.105C193.466 207.997 193.269 207.864 193.084 207.71L175.106 192.754C174.195 191.996 173.451 190.989 172.937 189.82C172.423 188.65 172.155 187.352 172.155 186.034V165.638C172.155 164.32 172.423 163.022 172.937 161.852C173.45 160.683 174.195 159.677 175.106 158.918L193.084 143.963C193.269 143.808 193.466 143.675 193.673 143.567C194.732 143.011 195.892 142.776 197.048 142.884C198.203 142.992 199.317 143.439 200.289 144.185C201.261 144.932 202.059 145.953 202.612 147.157C203.165 148.36 203.455 149.708 203.455 151.078V200.594C203.455 202.774 202.722 204.865 201.417 206.407C200.113 207.948 198.344 208.814 196.499 208.814L196.499 208.817Z" fill="#3DAD9D"/>
<path d="M156.264 212.827H106.123C95.8931 212.817 87.6028 205.002 87.5923 195.359V156.313C87.6028 146.67 95.8931 138.855 106.123 138.845H156.395C166.552 138.857 174.783 146.616 174.795 156.19V195.359C174.784 205.002 166.494 212.817 156.264 212.827Z" fill="#3DAD9D"/>
<path d="M245.583 263.611C253.819 263.611 260.496 255.72 260.496 245.987C260.496 236.254 253.819 228.363 245.583 228.363C237.347 228.363 230.671 236.254 230.671 245.987C230.671 255.72 237.347 263.611 245.583 263.611Z" fill="#3F3D56"/>
<path d="M253.329 245.671L241.442 237.561C241.395 237.529 241.342 237.512 241.288 237.512C241.233 237.512 241.18 237.529 241.133 237.561C241.086 237.593 241.047 237.639 241.02 237.694C240.993 237.75 240.979 237.812 240.979 237.876V254.098C240.979 254.162 240.993 254.225 241.02 254.28C241.047 254.336 241.086 254.382 241.133 254.414C241.18 254.446 241.233 254.462 241.288 254.462C241.342 254.462 241.395 254.446 241.442 254.414L253.329 246.303C253.376 246.271 253.415 246.225 253.442 246.169C253.469 246.114 253.483 246.051 253.483 245.987C253.483 245.923 253.469 245.86 253.442 245.805C253.415 245.749 253.376 245.703 253.329 245.671L241.442 237.561C241.395 237.529 241.342 237.512 241.288 237.512C241.233 237.512 241.18 237.529 241.133 237.561C241.086 237.593 241.047 237.639 241.02 237.694C240.993 237.75 240.979 237.812 240.979 237.876V254.098C240.979 254.162 240.993 254.225 241.02 254.28C241.047 254.336 241.086 254.382 241.133 254.414C241.18 254.446 241.233 254.462 241.288 254.462C241.342 254.462 241.395 254.446 241.442 254.414L253.329 246.303C253.376 246.271 253.415 246.225 253.442 246.169C253.469 246.114 253.483 246.051 253.483 245.987C253.483 245.923 253.469 245.86 253.442 245.805C253.415 245.749 253.376 245.703 253.329 245.671V245.671Z" fill="white"/>
</g>
<defs>
<clipPath id="clip0">
<rect width="416" height="296" fill="white" transform="translate(0.713867)"/>
</clipPath>
</defs>
</svg>
